# xmcd CD database file
#
# Track frame offsets:
#	150
#	18155
#	33917
#	55130
#	77197
#	90360
#	113655
#	139210
#	158592
#	178675
#	200305
#	221542
#	239510
#
# Disc length: 3353 seconds
#
# Revision: 14
# Processed by: cddbd v1.5.2PL0 Copyright (c) Steve Scherf et al.
# Submitted via: CDex 1.70beta3
#
DISCID=a00d170d
DTITLE=堀江由衣 - Sky
DYEAR=2003
DGENRE=Pop
TTITLE0=お気に入りの自転車
TTITLE1=Romantic Flight
TTITLE2=Eyes Memorize
TTITLE3=見つめられたら -When I Fallin' Love With You-
TTITLE4=Rain
TTITLE5=It's My Style
TTITLE6=タイムカプセル
TTITLE7=ひまわりと飛行機雲
TTITLE8=Angel 恋をした
TTITLE9=All My Love (Album Mix)
TTITLE10=Tomorrow
TTITLE11=I Just Wanna Be With You
TTITLE12=In The Sky
EXTD=YEAR: 2003
EXTT0=
EXTT1=
EXTT2=
EXTT3=
EXTT4=
EXTT5=
EXTT6=
EXTT7=
EXTT8=
EXTT9=
EXTT10=
EXTT11=
EXTT12=
PLAYORDER=
